<svg preserveAspectRatio="none" width="100%" height="100%" overflow="visible" style="display: block;" viewBox="0 0 36 36" fill="none" xmlns="http://www.w3.org/2000/svg">
<g id="Image [object-contain]" clip-path="url(#clip0_0_10)">
<path id="Vector" d="M18 36C27.9411 36 36 27.9411 36 18C36 8.05887 27.9411 0 18 0C8.05887 0 0 8.05887 0 18C0 27.9411 8.05887 36 18 36Z" fill="var(--fill-0, #B1DAFF)"/>
<path id="Vector_2" d="M18 21V27" stroke="var(--stroke-0, #3F4050)" stroke-width="0.6" stroke-linecap="round"/>
<path id="Vector_3" d="M15.75 21V24.75" stroke="var(--stroke-0, #3F4050)" stroke-width="0.6" stroke-linecap="round"/>
<path id="Vector_4" d="M20.25 21V24" stroke="var(--stroke-0, #3F4050)" stroke-width="0.6" stroke-linecap="round"/>
<path id="Vector_5" d="M22.5 21V24C22.5 24.8284 23.1716 25.5 24 25.5H25.5" stroke="var(--stroke-0, #3F4050)" stroke-width="0.6"/>
<path id="Vector_6" d="M13.5 19.5V24C13.5 24.8284 12.8284 25.5 12 25.5H10.5" stroke="var(--stroke-0, #3F4050)" stroke-width="0.6"/>
<path id="Vector_7" d="M13.8762 11.25C12.9565 11.25 12.0602 11.5398 11.3147 12.0783C10.7049 12.5187 10.219 13.1088 9.90385 13.7917L9.69231 14.25C9.25473 15.1981 9.27184 16.2937 9.73882 17.2276L9.75 17.25L10.4073 18.5646C10.4683 18.6865 10.5 18.8209 10.5 18.9573C10.5 19.2898 10.6879 19.5939 10.9854 19.7427L11.5854 20.0427C11.8581 20.1791 12.1587 20.25 12.4635 20.25H12.75L22.8462 21H22.9393C23.6184 21 24.2698 20.7302 24.75 20.25L25.5 19.5L26.0244 18.9756C26.1738 18.8262 26.2981 18.6537 26.3926 18.4647L26.7085 17.8329C26.8839 17.4821 26.824 17.0594 26.5579 16.7711C26.397 16.5968 26.3077 16.3653 26.3077 16.1281C26.3077 15.8869 26.2168 15.6516 26.0533 15.4745L25.6153 15L25.3926 14.7587C25.0933 14.4344 24.6721 14.25 24.2307 14.25H24.076C23.3968 14.25 22.8462 13.6994 22.8462 13.0201C22.8462 12.8422 22.8075 12.6663 22.7329 12.5047L22.2385 11.4335C22.1827 11.3126 22.1538 11.1811 22.1538 11.0479C22.1538 10.7103 21.9688 10.3998 21.672 10.239L21.1826 9.97388C20.9114 9.82695 20.6076 9.75 20.2992 9.75H20.25H19.5H18H17.6361C16.9854 9.75 16.3644 10.0219 15.9231 10.5L15.7003 10.7413C15.4009 11.0656 14.9798 11.25 14.5385 11.25H13.8762Z" fill="var(--fill-0, #2589F4)"/>
<path id="Vector_8" fill-rule="evenodd" clip-rule="evenodd" d="M18.7895 10.2815C18.185 10.2814 17.5927 10.4589 17.0809 10.7936C16.5691 11.1283 16.1586 11.6067 15.8964 12.1736C15.829 12.3188 15.7116 12.4322 15.5674 12.4913C15.4234 12.5504 15.2632 12.5508 15.1189 12.4924C14.6271 12.2942 14.0995 12.2112 13.5734 12.2493C13.0474 12.2873 12.5358 12.4455 12.0751 12.7125C11.6144 12.9795 11.2158 13.3488 10.9077 13.7943C10.5995 14.2397 10.3894 14.7504 10.2922 15.2898C10.195 15.8294 10.2131 16.3845 10.3452 16.9159C10.4773 17.4474 10.7202 17.942 11.0566 18.3647C11.3931 18.7874 11.8148 19.1277 12.2918 19.3617C12.7689 19.5955 13.2895 19.7172 13.8168 19.7181H23.3794C23.7274 19.718 24.0713 19.6406 24.3882 19.491C24.705 19.3415 24.9876 19.1232 25.217 18.8509C25.4463 18.5785 25.6172 18.2585 25.7183 17.912C25.8192 17.5653 25.848 17.2003 25.8026 16.8412C25.7573 16.4821 25.6388 16.1373 25.4552 15.8296C25.2716 15.5221 25.0269 15.2587 24.7377 15.0574C24.4485 14.8562 24.1214 14.7214 23.7782 14.6622C23.4348 14.6031 23.0835 14.6208 22.7473 14.7144C22.6501 14.7414 22.5481 14.7434 22.4502 14.72C22.3522 14.6966 22.2612 14.6485 22.1852 14.5801C22.1091 14.5116 22.0503 14.4248 22.014 14.3273C21.9775 14.2297 21.9647 14.1244 21.9765 14.0204C21.9912 13.89 21.9985 13.7575 21.9985 13.623C21.9985 13.1842 21.9156 12.7497 21.7542 12.3443C21.5929 11.9389 21.3566 11.5705 21.0584 11.2602C20.7603 10.9499 20.4064 10.7038 20.017 10.5359C19.6275 10.3679 19.211 10.2815 18.7895 10.2815ZM15.0516 11.1242C15.5581 10.3034 16.3013 9.67043 17.1744 9.31596C18.0477 8.96148 19.0062 8.90364 19.9128 9.15069C20.8195 9.39774 21.6279 9.93704 22.2222 10.6914C22.8167 11.4457 23.1665 12.3765 23.2218 13.3504C23.2739 13.3481 23.3261 13.347 23.3787 13.347C24.3441 13.362 25.2649 13.7718 25.9426 14.4877C26.6202 15.2037 27 16.1685 27 17.1735C27 18.1785 26.6202 19.1433 25.9426 19.8593C25.2649 20.5752 24.3441 20.985 23.3787 21H13.8168C13.1314 20.9991 12.454 20.8461 11.8298 20.5512C11.2056 20.2563 10.649 19.8263 10.197 19.2899C9.74508 18.7533 9.40814 18.1227 9.2087 17.4401C9.00924 16.7574 8.95187 16.0383 9.0404 15.3307C9.12891 14.6232 9.36131 13.9434 9.72206 13.3367C10.0828 12.73 10.5637 12.2103 11.1326 11.8122C11.7014 11.4142 12.3453 11.1469 13.0212 11.0283C13.6971 10.9096 14.3887 10.9423 15.0516 11.1242Z" fill="var(--fill-0, #3F4050)"/>
<path id="Vector_9" d="M27.75 25.5C27.75 26.3284 27.0784 27 26.25 27C25.4216 27 24.75 26.3284 24.75 25.5C24.75 24.6716 25.4216 24 26.25 24C27.0784 24 27.75 24.6716 27.75 25.5Z" fill="var(--fill-0, #2589F4)"/>
<path id="Vector_10" d="M19.5 28.0261C19.5 28.8546 18.8284 29.5261 18 29.5261C17.1716 29.5261 16.5 28.8546 16.5 28.0261C16.5 27.1977 17.1716 26.5261 18 26.5261C18.8284 26.5261 19.5 27.1977 19.5 28.0261Z" fill="var(--fill-0, #2589F4)"/>
<path id="Vector_11" d="M12.5054 25.5C12.5054 26.3284 11.8338 27 11.0054 27C10.1769 27 9.50536 26.3284 9.50536 25.5C9.50536 24.6716 10.1769 24 11.0054 24C11.8338 24 12.5054 24.6716 12.5054 25.5Z" fill="var(--fill-0, #2589F4)"/>
</g>
<defs>
<clipPath id="clip0_0_10">
<rect width="36" height="36" fill="white"/>
</clipPath>
</defs>
</svg>
