<svg preserveAspectRatio="none" width="100%" height="100%" overflow="visible" style="display: block;" viewBox="0 0 36 36" fill="none" xmlns="http://www.w3.org/2000/svg">
<g id="Image [object-contain]" clip-path="url(#clip0_0_97)">
<path id="Vector" d="M18 36C27.9411 36 36 27.9411 36 18C36 8.05887 27.9411 0 18 0C8.05887 0 0 8.05887 0 18C0 27.9411 8.05887 36 18 36Z" fill="var(--fill-0, #B1DAFF)"/>
<path id="Vector_2" d="M29.25 18C29.25 24.2131 24.2131 29.25 18 29.25C11.7868 29.25 6.75 24.2131 6.75 18C6.75 11.7868 11.7868 6.75 18 6.75C24.2131 6.75 29.25 11.7868 29.25 18Z" fill="var(--fill-0, #2589F4)"/>
<path id="Vector_3" d="M28.5755 18C28.5755 12.1596 23.8404 7.42456 18 7.42456C12.1596 7.42456 7.42456 12.1596 7.42456 18C7.42456 23.8404 12.1596 28.5755 18 28.5755V29.25C11.7868 29.25 6.75 24.2131 6.75 18C6.75 11.7868 11.7868 6.75 18 6.75C24.2131 6.75 29.25 11.7868 29.25 18C29.25 24.2131 24.2131 29.25 18 29.25V28.5755C23.8404 28.5755 28.5755 23.8404 28.5755 18Z" fill="var(--fill-0, #3F4050)"/>
<path id="Vector_4" d="M27 18C27 22.9705 22.9705 27 18 27C13.0294 27 9 22.9705 9 18C9 13.0294 13.0294 9 18 9C22.9705 9 27 13.0294 27 18Z" fill="var(--fill-0, #C6DBFF)"/>
<path id="Vector_5" d="M26.3255 18C26.3255 13.4022 22.5978 9.67456 18 9.67456C13.4022 9.67456 9.67456 13.4022 9.67456 18C9.67456 22.5978 13.4022 26.3255 18 26.3255V27C13.0294 27 9 22.9705 9 18C9 13.0294 13.0294 9 18 9C22.9705 9 27 13.0294 27 18C27 22.9705 22.9705 27 18 27V26.3255C22.5978 26.3255 26.3255 22.5978 26.3255 18Z" fill="var(--fill-0, #3F4050)"/>
<path id="Vector_6" d="M16.4079 23.0337V21.9037H14.593C14.5251 21.9037 14.4681 21.8806 14.4221 21.8346C14.3762 21.7885 14.3533 21.7315 14.3533 21.6633C14.3533 21.5953 14.3762 21.5385 14.4221 21.4927C14.4681 21.4471 14.5251 21.4243 14.593 21.4243H15.723V14.5756H14.593C14.5251 14.5756 14.4681 14.5526 14.4221 14.5065C14.3762 14.4605 14.3533 14.4034 14.3533 14.3353C14.3533 14.2672 14.3762 14.2104 14.4221 14.1647C14.4681 14.1191 14.5251 14.0962 14.593 14.0962H16.4079V12.9662C16.4079 12.8983 16.431 12.8414 16.4771 12.7955C16.5231 12.7495 16.5801 12.7265 16.6482 12.7265C16.7163 12.7265 16.7731 12.7495 16.8187 12.7955C16.8645 12.8414 16.8873 12.8983 16.8873 12.9662V14.0962H18.4282V12.9662C18.4282 12.8983 18.4514 12.8414 18.4974 12.7955C18.5435 12.7495 18.6004 12.7265 18.6685 12.7265C18.7366 12.7265 18.7935 12.7495 18.8391 12.7955C18.8848 12.8414 18.9076 12.8983 18.9076 12.9662V14.0962C19.5126 14.0962 20.0062 14.2874 20.3886 14.6698C20.7711 15.0522 20.9622 15.5515 20.9622 16.1679C20.9622 16.5447 20.8881 16.8756 20.7396 17.161C20.5912 17.4463 20.4028 17.6746 20.1747 17.8459C20.6427 17.9715 21.0051 18.214 21.2619 18.5736C21.5187 18.9331 21.6471 19.3525 21.6471 19.8319C21.6471 20.4484 21.4558 20.9478 21.0735 21.3301C20.6911 21.7125 20.1918 21.9037 19.5754 21.9037H18.9076V23.0337C18.9076 23.1016 18.8846 23.1586 18.8385 23.2045C18.7925 23.2504 18.7355 23.2734 18.6672 23.2734C18.5993 23.2734 18.5424 23.2504 18.4967 23.2045C18.4511 23.1586 18.4282 23.1016 18.4282 23.0337V21.9037H16.8873V23.0337C16.8873 23.1016 16.8642 23.1586 16.8182 23.2045C16.7721 23.2504 16.7151 23.2734 16.6469 23.2734C16.5789 23.2734 16.522 23.2504 16.4763 23.2045C16.4307 23.1586 16.4079 23.1016 16.4079 23.0337ZM16.2024 17.7603H18.8906C19.3586 17.7603 19.7409 17.6119 20.0376 17.3151C20.3345 17.0184 20.4828 16.6359 20.4828 16.1679C20.4828 15.7 20.3345 15.3175 20.0376 15.0208C19.7409 14.724 19.3586 14.5756 18.8906 14.5756H16.2024V17.7603ZM16.2024 21.4243H19.5754C20.0433 21.4243 20.4258 21.276 20.7225 20.9791C21.0193 20.6824 21.1677 20.2999 21.1677 19.8319C21.1677 19.3639 21.0193 18.9816 20.7225 18.6849C20.4258 18.388 20.0433 18.2397 19.5754 18.2397H16.2024V21.4243Z" fill="var(--fill-0, #3F4050)"/>
<path id="Vector_7" d="M20.9523 19.8829C20.9523 19.4511 20.8189 19.1106 20.5594 18.8475C20.2999 18.5842 19.9641 18.4493 19.5382 18.4493H16.3564V21.3154H19.5382C19.9641 21.3154 20.2999 21.1804 20.5594 20.9172C20.8188 20.6542 20.9521 20.3145 20.9523 19.8829ZM20.2725 16.1925C20.2724 15.7609 20.1381 15.4212 19.8786 15.1581C19.6191 14.8951 19.2841 14.7599 18.8584 14.7599H16.3564V17.6262H18.8584C19.2841 17.6262 19.6191 17.4909 19.8786 17.2279C20.1383 16.9647 20.2725 16.6243 20.2725 16.1925ZM16.7013 12.9688C16.7013 12.9431 16.6941 12.9295 16.6817 12.9169C16.6695 12.9045 16.6567 12.8981 16.6314 12.898C16.6062 12.898 16.5927 12.9043 16.5802 12.9169L16.579 12.918C16.5667 12.9306 16.5606 12.9439 16.5606 12.9688V14.2764H14.59C14.5772 14.2765 14.5675 14.2787 14.5594 14.282L14.5387 14.2963C14.5265 14.3086 14.5202 14.3216 14.5202 14.3472C14.5202 14.3733 14.5261 14.3876 14.5387 14.4003C14.5514 14.4133 14.5651 14.4202 14.59 14.4202H15.8797V21.6562H14.59C14.5647 21.6562 14.5513 21.6625 14.5387 21.675C14.5266 21.6873 14.5202 21.7005 14.5202 21.726C14.5202 21.7519 14.5262 21.7663 14.5387 21.7791C14.5514 21.792 14.5651 21.7989 14.59 21.7989H16.5606V23.1066C16.5606 23.1321 16.5667 23.1459 16.579 23.1585C16.5912 23.1709 16.6048 23.1774 16.6303 23.1774C16.6557 23.1772 16.6692 23.1711 16.6817 23.1585C16.6944 23.1456 16.7013 23.1318 16.7013 23.1066V21.7989H18.5672V23.1066C18.5672 23.1321 18.5733 23.1459 18.5856 23.1585C18.5977 23.1709 18.6114 23.1774 18.6369 23.1774C18.6622 23.1772 18.6757 23.1711 18.6882 23.1585C18.7009 23.1456 18.7078 23.1318 18.7078 23.1066V21.7989H19.5382C20.1124 21.7989 20.5638 21.6196 20.9076 21.2712C21.2512 20.9227 21.4279 20.4651 21.4279 19.8829C21.4279 19.4325 21.3097 19.0443 21.0766 18.7136C20.8464 18.387 20.5212 18.1638 20.0903 18.0465L19.7575 17.9559L20.0335 17.7468C20.2375 17.5915 20.4092 17.3824 20.5464 17.1151C20.6795 16.8558 20.7483 16.5492 20.7483 16.1925C20.7481 15.6103 20.5716 15.1527 20.2278 14.8041C19.8834 14.455 19.4369 14.2764 18.8748 14.2764H18.7078V12.9688C18.7078 12.9431 18.7006 12.9295 18.6882 12.9169C18.676 12.9045 18.6633 12.8981 18.6379 12.898C18.6127 12.898 18.5992 12.9043 18.5868 12.9169L18.5856 12.918C18.5733 12.9306 18.5672 12.9439 18.5672 12.9688V14.2764H16.7013V12.9688ZM21.2872 19.8829C21.2871 20.3932 21.126 20.823 20.7963 21.1573C20.4663 21.4918 20.0418 21.6562 19.5382 21.6562H16.0215V18.1096H19.5382C20.0418 18.1096 20.4663 18.2728 20.7963 18.6073C21.1261 18.9418 21.2872 19.3723 21.2872 19.8829ZM20.6075 16.1925C20.6075 16.7029 20.4462 17.1336 20.1165 17.4679C19.7866 17.8024 19.362 17.9658 18.8584 17.9658H16.0215V14.4202H18.8584C19.362 14.4203 19.7866 14.5836 20.1165 14.9181C20.446 15.2525 20.6075 15.6822 20.6075 16.1925ZM19.0428 13.9435C19.6084 13.9769 20.0863 14.1807 20.4645 14.5641C20.8801 14.9854 21.0831 15.5338 21.0832 16.1925C21.0832 16.5943 21.0049 16.9557 20.8431 17.271C20.7364 17.4792 20.6067 17.6593 20.458 17.8143C20.8255 17.9641 21.1245 18.1974 21.3495 18.5167C21.6265 18.91 21.7641 19.368 21.7641 19.8829C21.764 20.5414 21.5608 21.09 21.1453 21.5113C20.7297 21.9327 20.188 22.1386 19.5382 22.1386H19.0428V23.1066C19.0428 23.2179 19.0036 23.319 18.925 23.3986C18.8463 23.4781 18.7464 23.518 18.6369 23.518C18.5275 23.518 18.4273 23.4783 18.3489 23.3986C18.2707 23.3188 18.2322 23.2173 18.2322 23.1066V22.1386H17.0362V23.1066C17.0362 23.2179 16.9971 23.319 16.9183 23.3986C16.8397 23.4781 16.7398 23.518 16.6303 23.518C16.5208 23.518 16.4208 23.4784 16.3424 23.3986C16.2644 23.3188 16.2257 23.2173 16.2255 23.1066V22.1386H14.59C14.4803 22.1385 14.3804 22.0989 14.3019 22.0191C14.2233 21.9393 14.1841 21.8371 14.1841 21.726C14.1842 21.615 14.2231 21.5134 14.3019 21.4339C14.3806 21.3547 14.4807 21.3156 14.59 21.3154H15.5446V14.7599H14.59C14.4803 14.7598 14.3804 14.7201 14.3019 14.6404C14.2233 14.5605 14.1841 14.4584 14.1841 14.3472C14.1842 14.2363 14.2231 14.1347 14.3019 14.0552C14.3806 13.976 14.4807 13.9369 14.59 13.9368H16.2255V12.9688C16.2257 12.858 16.2641 12.7573 16.3424 12.6779C16.4211 12.5981 16.5217 12.5573 16.6314 12.5573C16.741 12.5573 16.84 12.598 16.9183 12.6779L16.9195 12.6768C16.9977 12.7565 17.0362 12.8581 17.0362 12.9688V13.9368H18.2322V12.9688C18.2322 12.858 18.2706 12.7573 18.3489 12.6779C18.4276 12.5981 18.5283 12.5573 18.6379 12.5573C18.7476 12.5574 18.8466 12.598 18.925 12.6779L18.9261 12.6768C19.0042 12.7565 19.0428 12.8581 19.0428 12.9688V13.9435Z" fill="var(--fill-0, #3F4050)"/>
</g>
<defs>
<clipPath id="clip0_0_97">
<rect width="36" height="36" fill="white"/>
</clipPath>
</defs>
</svg>
