<svg preserveAspectRatio="none" width="100%" height="100%" overflow="visible" style="display: block;" viewBox="0 0 36 36" fill="none" xmlns="http://www.w3.org/2000/svg">
<g id="Image [object-contain]" clip-path="url(#clip0_0_73)">
<path id="Vector" d="M18 36C27.9411 36 36 27.9411 36 18C36 8.05887 27.9411 0 18 0C8.05887 0 0 8.05887 0 18C0 27.9411 8.05887 36 18 36Z" fill="var(--fill-0, #B1DAFF)"/>
<path id="Vector_2" d="M22.5579 7.25097H19.0214L17.0544 12.0194H22.5579V7.25097Z" fill="var(--fill-0, #2589F4)"/>
<path id="Vector_3" d="M20.6325 16.92H11.1252L9.80346 17.9005V25.2548H21.826V17.9005L20.6325 16.92Z" fill="var(--fill-0, #C6DBFF)"/>
<path id="Vector_4" d="M24.1298 27.299V22.7902L23.6588 22.1509L22.582 21.6462L21.3372 22.1509L20.597 22.7902V25.2129H11.0412V23.1267L10.671 22.1509L8.9214 21.6462L7.57544 22.5547V27.097L8.9214 28.8468H22.582L24.1298 27.299Z" fill="var(--fill-0, #2589F4)"/>
<path id="Vector_5" d="M28.1474 28.0554V13.1363C28.1474 12.2665 27.8376 11.5218 27.2181 10.9023C26.5984 10.2827 25.8539 9.97298 24.984 9.97298H23.0145V11.5248C23.0145 11.7635 22.9348 11.9625 22.7757 12.1216C22.6165 12.2808 22.4177 12.3604 22.1789 12.3604H17.4637C17.1255 12.3604 16.8918 12.2261 16.7625 11.9575C16.6332 11.6889 16.6282 11.4154 16.7475 11.1368L18.4485 7.43637C18.5679 7.17774 18.7122 6.99869 18.8812 6.89921C19.0504 6.79974 19.294 6.75 19.6125 6.75H22.1789C22.4177 6.75 22.6165 6.82958 22.7757 6.98874C22.9348 7.14791 23.0145 7.34685 23.0145 7.58559V9.13738H24.984C26.0982 9.13738 27.0432 9.52534 27.819 10.3012C28.5949 11.0771 28.9828 12.0222 28.9828 13.1363V28.0554H28.1474ZM17.4637 11.5248H22.1789V7.58559H19.2245L17.4637 11.5248ZM9.82251 29.25C9.02772 29.25 8.36143 28.9812 7.82367 28.4437C7.28611 27.906 7.01733 27.2397 7.01733 26.4448V23.4606C7.01733 22.8637 7.22624 22.3465 7.64403 21.9088C8.06181 21.4711 8.64872 21.2523 9.40472 21.2523V18.2681C9.40472 17.7758 9.5801 17.3541 9.93084 17.0034C10.2814 16.6528 10.7029 16.4775 11.1953 16.4775H20.3866C20.8791 16.4775 21.3008 16.6528 21.6515 17.0034C22.002 17.3541 22.1772 17.7758 22.1772 18.2681V21.2523C22.9332 21.2523 23.5202 21.4613 23.9379 21.879C24.3558 22.2968 24.5646 22.824 24.5646 23.4606V26.4448C24.5646 27.2397 24.2958 27.906 23.7581 28.4437C23.2205 28.9812 22.5543 29.25 21.7594 29.25H9.82251ZM10.2403 18.2681V21.4314C10.5984 21.6103 10.8869 21.9039 11.1057 22.3118C11.3246 22.7196 11.434 23.1025 11.434 23.4606V24.8334H20.148V23.4606C20.148 23.1025 20.2573 22.7196 20.4762 22.3118C20.695 21.9039 20.9835 21.6103 21.3417 21.4314V18.2681C21.3417 17.9895 21.2522 17.7607 21.0731 17.5816C20.894 17.4027 20.6652 17.3131 20.3866 17.3131H11.1953C10.9167 17.3131 10.6879 17.4027 10.5089 17.5816C10.3298 17.7607 10.2403 17.9895 10.2403 18.2681ZM9.82251 28.4145H21.7594C22.3503 28.4145 22.8262 28.2093 23.1874 27.7987C23.5485 27.3885 23.7291 26.9373 23.7291 26.4448V23.4606C23.7291 23.0488 23.6026 22.7171 23.3497 22.4654C23.0971 22.2138 22.7638 22.0879 22.35 22.0879C21.9364 22.0879 21.6053 22.2138 21.3566 22.4654C21.1079 22.7171 20.9835 23.0488 20.9835 23.4606V25.669H10.5984V23.4606C10.5984 23.0488 10.472 22.7171 10.2191 22.4654C9.96645 22.2138 9.63321 22.0879 9.2194 22.0879C8.80578 22.0879 8.47464 22.2138 8.22596 22.4654C7.97727 22.7171 7.85292 23.0488 7.85292 23.4606V26.4448C7.85292 26.9373 8.03346 27.3885 8.39456 27.7987C8.75565 28.2093 9.23163 28.4145 9.82251 28.4145Z" fill="var(--fill-0, #3F4050)"/>
</g>
<defs>
<clipPath id="clip0_0_73">
<rect width="36" height="36" fill="white"/>
</clipPath>
</defs>
</svg>
