<svg width="36" height="36" viewBox="0 0 36 36" fill="none" xmlns="http://www.w3.org/2000/svg">
<g clip-path="url(#clip0_45_1582)">
<g clip-path="url(#clip1_45_1582)">
<path d="M18 36C27.9411 36 36 27.9411 36 18C36 8.05887 27.9411 0 18 0C8.05887 0 0 8.05887 0 18C0 27.9411 8.05887 36 18 36Z" fill="#B1DAFF"/>
<path d="M13.5914 20.0001C13.5305 20.0001 13.5 19.9687 13.5 19.9063V15.8364C13.5 15.779 13.5207 15.729 13.5622 15.6864L14.1694 15.06C14.2108 15.0199 14.2596 15 14.3157 15H15.1533C15.2094 15 15.2582 15.0199 15.2996 15.06L15.9141 15.6939H16.086L16.7006 15.06C16.742 15.0199 16.7907 15 16.8468 15H17.6808C17.7393 15 17.788 15.0199 17.827 15.06L18.4378 15.6864C18.4794 15.729 18.5001 15.779 18.5001 15.8364V19.9063C18.5001 19.9687 18.4696 20.0001 18.4086 20.0001H17.3698C17.3089 20.0001 17.2783 19.9687 17.2783 19.9063V15.9978H16.609V19.9063C16.609 19.9687 16.5786 20.0001 16.5175 20.0001H15.4824C15.4215 20.0001 15.3911 19.9687 15.3911 19.9063V15.9978H14.718V19.9063C14.718 19.9687 14.6875 20.0001 14.6266 20.0001H13.5914Z" fill="#3F4050"/>
<path d="M22.5001 15H19V16.0001H21.0001L19 19.0001V20.0001H22.5001V19.0001H20.5001L22.5001 16.0001V15Z" fill="#3F4050"/>
<path d="M21 9C21 10.6569 19.6569 12 18 12C16.3431 12 15 10.6569 15 9C15 7.34314 16.3431 6 18 6C19.6569 6 21 7.34314 21 9Z" fill="#E1ECFF"/>
<path d="M18.8982 7.95923H17.0518C16.989 7.95923 16.9284 7.9827 16.8819 8.02505C16.8295 8.07281 16.7998 8.14038 16.7998 8.21124V9.82218C16.7998 9.87324 16.8127 9.92345 16.8376 9.96806L16.8684 10.0233C16.9213 10.1184 17.0217 10.1774 17.1304 10.1774H18.8403C18.934 10.1774 19.0225 10.1335 19.0792 10.0588L19.1388 9.98045C19.1784 9.92828 19.1998 9.86457 19.1998 9.79907V8.26031C19.1998 8.16014 19.1487 8.06591 19.0654 8.01023C19.0161 7.97723 18.9576 7.95923 18.8982 7.95923Z" fill="#2684FF"/>
<path d="M17.0685 10.2584C16.9908 10.2584 16.9266 10.233 16.8759 10.1823C16.8252 10.1315 16.7998 10.0673 16.7998 9.98973V8.12705C16.7998 8.04944 16.8252 7.98525 16.8759 7.93451C16.9266 7.88376 16.9908 7.85838 17.0685 7.85838H17.3998V7.74197C17.3998 7.57481 17.458 7.43301 17.5744 7.3166C17.6908 7.20018 17.8326 7.14197 17.9998 7.14197C18.1669 7.14197 18.3087 7.20018 18.4251 7.3166C18.5415 7.43301 18.5998 7.57481 18.5998 7.74197V7.85838H18.931C19.0087 7.85838 19.0729 7.88376 19.1236 7.93451C19.1743 7.98525 19.1998 8.04944 19.1998 8.12705V9.98973C19.1998 10.0673 19.1743 10.1315 19.1236 10.1823C19.0729 10.233 19.0087 10.2584 18.931 10.2584H17.0685ZM17.0685 10.133H18.931C18.9669 10.133 18.9997 10.1181 19.0296 10.0882C19.0594 10.0584 19.0744 10.0256 19.0744 9.98973V8.12705C19.0744 8.09123 19.0594 8.05839 19.0296 8.02854C18.9997 7.99869 18.9669 7.98377 18.931 7.98377H18.5998V8.45838C18.5998 8.47629 18.5938 8.49122 18.5818 8.50317C18.57 8.51511 18.555 8.52108 18.5371 8.52108C18.5191 8.52108 18.5043 8.51511 18.4923 8.50317C18.4803 8.49122 18.4744 8.47629 18.4744 8.45838V7.98377H17.5251V8.45838C17.5251 8.47629 17.5192 8.49122 17.5072 8.50317C17.4952 8.51511 17.4804 8.52108 17.4624 8.52108C17.4445 8.52108 17.4297 8.51511 17.4177 8.50317C17.4057 8.49122 17.3998 8.47629 17.3998 8.45838V7.98377H17.0685C17.0326 7.98377 16.9998 7.99869 16.9699 8.02854C16.9401 8.05839 16.9251 8.09123 16.9251 8.12705V9.98973C16.9251 10.0256 16.9401 10.0584 16.9699 10.0882C16.9998 10.1181 17.0326 10.133 17.0685 10.133ZM17.5251 7.85838H18.4744V7.74197C18.4744 7.60764 18.4288 7.49496 18.3378 7.40391C18.2467 7.31286 18.1341 7.26734 17.9998 7.26734C17.8654 7.26734 17.7528 7.31286 17.6617 7.40391C17.5707 7.49496 17.5251 7.60764 17.5251 7.74197V7.85838Z" fill="#3F4050"/>
<path d="M16.9251 10.133V7.98377M17.0685 10.2584C16.9908 10.2584 16.9266 10.233 16.8759 10.1823C16.8252 10.1315 16.7998 10.0673 16.7998 9.98973V8.12705C16.7998 8.04944 16.8252 7.98525 16.8759 7.93451C16.9266 7.88376 16.9908 7.85838 17.0685 7.85838H17.3998V7.74197C17.3998 7.57481 17.458 7.43301 17.5744 7.3166C17.6908 7.20018 17.8326 7.14197 17.9998 7.14197C18.1669 7.14197 18.3087 7.20018 18.4251 7.3166C18.5415 7.43301 18.5998 7.57481 18.5998 7.74197V7.85838H18.931C19.0087 7.85838 19.0729 7.88376 19.1236 7.93451C19.1743 7.98525 19.1998 8.04944 19.1998 8.12705V9.98973C19.1998 10.0673 19.1743 10.1315 19.1236 10.1823C19.0729 10.233 19.0087 10.2584 18.931 10.2584H17.0685ZM17.0685 10.133H18.931C18.9669 10.133 18.9997 10.1181 19.0296 10.0882C19.0594 10.0584 19.0744 10.0256 19.0744 9.98973V8.12705C19.0744 8.09123 19.0594 8.05839 19.0296 8.02854C18.9997 7.99869 18.9669 7.98377 18.931 7.98377H18.5998V8.45838C18.5998 8.47629 18.5938 8.49122 18.5818 8.50317C18.57 8.51511 18.555 8.52108 18.5371 8.52108C18.5191 8.52108 18.5043 8.51511 18.4923 8.50317C18.4803 8.49122 18.4744 8.47629 18.4744 8.45838V7.98377H17.5251V8.45838C17.5251 8.47629 17.5192 8.49122 17.5072 8.50317C17.4952 8.51511 17.4804 8.52108 17.4624 8.52108C17.4445 8.52108 17.4297 8.51511 17.4177 8.50317C17.4057 8.49122 17.3998 8.47629 17.3998 8.45838V7.98377H17.0685C17.0326 7.98377 16.9998 7.99869 16.9699 8.02854C16.9401 8.05839 16.9251 8.09123 16.9251 8.12705V9.98973C16.9251 10.0256 16.9401 10.0584 16.9699 10.0882C16.9998 10.1181 17.0326 10.133 17.0685 10.133ZM17.5251 7.85838H18.4744V7.74197C18.4744 7.60764 18.4288 7.49496 18.3378 7.40391C18.2467 7.31286 18.1341 7.26734 17.9998 7.26734C17.8654 7.26734 17.7528 7.31286 17.6617 7.40391C17.5707 7.49496 17.5251 7.60764 17.5251 7.74197V7.85838Z" stroke="#3F4050" stroke-width="0.05"/>
<path d="M30 18C30 19.6569 28.6569 21 27 21C25.3431 21 24 19.6569 24 18C24 16.3431 25.3431 15 27 15C28.6569 15 30 16.3431 30 18Z" fill="#E1ECFF"/>
<path d="M27.5996 11.4C27.5996 13.0569 26.2565 14.4 24.5996 14.4C22.9427 14.4 21.5996 13.0569 21.5996 11.4C21.5996 9.74317 22.9427 8.40002 24.5996 8.40002C26.2565 8.40002 27.5996 9.74317 27.5996 11.4Z" fill="#E1ECFF"/>
<path d="M27.6139 16.2H26.3998C26.1952 16.2 26.0293 16.3659 26.0293 16.5706V19.5346C26.0293 19.7392 26.1952 19.9051 26.3998 19.9051H27.6139C27.8185 19.9051 27.9844 19.7392 27.9844 19.5346V16.5706C27.9844 16.3659 27.8185 16.2 27.6139 16.2Z" fill="#2684FF"/>
<path d="M26.3265 19.9051C26.247 19.9051 26.1794 19.8772 26.1236 19.8216C26.0679 19.7659 26.04 19.6983 26.04 19.6186V16.4865C26.04 16.4038 26.0672 16.3353 26.1213 16.2813C26.1753 16.2271 26.2439 16.2 26.3265 16.2H27.7943C27.8738 16.2 27.9414 16.2279 27.9972 16.2837C28.0529 16.3393 28.0808 16.407 28.0808 16.4865V16.9687C28.1253 16.9687 28.1126 16.9839 28.1475 17.0142C28.1826 17.0443 28.2 17.0818 28.2 17.1264V17.5894C28.2 17.634 28.1826 17.6715 28.1475 17.7016C28.1126 17.7319 28.1253 17.7471 28.0808 17.7471V19.6186C28.0808 19.6983 28.0529 19.7659 27.9972 19.8216C27.9414 19.8772 27.8738 19.9051 27.7943 19.9051H26.3265ZM26.3265 19.7715H27.7943C27.8388 19.7715 27.8754 19.7571 27.9041 19.7284C27.9327 19.6998 27.947 19.6632 27.947 19.6186V16.4865C27.947 16.4419 27.9327 16.4053 27.9041 16.3767C27.8754 16.348 27.8388 16.3338 27.7943 16.3338H26.3265C26.282 16.3338 26.2454 16.348 26.2167 16.3767C26.1881 16.4053 26.1738 16.4419 26.1738 16.4865V19.6186C26.1738 19.6632 26.1881 19.6998 26.2167 19.7284C26.2454 19.7571 26.282 19.7715 26.3265 19.7715Z" fill="#3F4050"/>
<path d="M27.5996 24.6C27.5996 26.2569 26.2565 27.6 24.5996 27.6C22.9427 27.6 21.5996 26.2569 21.5996 24.6C21.5996 22.9432 22.9427 21.6 24.5996 21.6C26.2565 21.6 27.5996 22.9432 27.5996 24.6Z" fill="#E1ECFF"/>
<path d="M14.4004 24.6C14.4004 26.2569 13.0572 27.6 11.4004 27.6C9.74354 27.6 8.40039 26.2569 8.40039 24.6C8.40039 22.9432 9.74354 21.6 11.4004 21.6C13.0572 21.6 14.4004 22.9432 14.4004 24.6Z" fill="#E1ECFF"/>
<path d="M14.4004 11.4C14.4004 13.0569 13.0572 14.4 11.4004 14.4C9.74354 14.4 8.40039 13.0569 8.40039 11.4C8.40039 9.74317 9.74354 8.40002 11.4004 8.40002C13.0572 8.40002 14.4004 9.74317 14.4004 11.4Z" fill="#E1ECFF"/>
<path d="M21 27C21 28.6569 19.6569 30 18 30C16.3431 30 15 28.6569 15 27C15 25.3431 16.3431 24 18 24C19.6569 24 21 25.3431 21 27Z" fill="#E1ECFF"/>
<path d="M12 18C12 19.6569 10.6569 21 9 21C7.34314 21 6 19.6569 6 18C6 16.3431 7.34314 15 9 15C10.6569 15 12 16.3431 12 18Z" fill="#E1ECFF"/>
<mask id="mask0_45_1582" style="mask-type:luminance" maskUnits="userSpaceOnUse" x="22" y="9" width="5" height="5">
<path d="M26.4008 9.59998H22.8008V13.2H26.4008V9.59998Z" fill="white"/>
</mask>
<g mask="url(#mask0_45_1582)">
<path d="M26.2885 12.234V12.3C26.2885 12.3298 26.2766 12.3584 26.2556 12.3795C26.2345 12.4006 26.2058 12.4125 26.176 12.4125H24.9205C24.8983 12.4126 24.8764 12.4061 24.8579 12.3937C24.8393 12.3814 24.8248 12.3639 24.8162 12.3433C24.566 11.7274 23.9596 11.2875 23.251 11.2875C23.251 10.8515 23.4281 10.4609 23.701 10.1625L25.276 11.7375L26.0243 11.9062C26.099 11.9227 26.1661 11.9641 26.2141 12.0237C26.2621 12.0833 26.2883 12.1575 26.2885 12.234Z" fill="#2684FF"/>
<path d="M26.0496 11.7964L25.3324 11.6349L23.7808 10.0829C23.77 10.0721 23.7571 10.0637 23.743 10.058C23.7289 10.0524 23.7139 10.0496 23.6986 10.05C23.6835 10.0503 23.6685 10.0537 23.6547 10.06C23.6409 10.0663 23.6284 10.0753 23.6182 10.0865C23.3089 10.4246 23.1387 10.8515 23.1387 11.2875V12.3C23.1387 12.3596 23.1624 12.4169 23.2045 12.4591C23.2468 12.5013 23.304 12.525 23.3637 12.525H23.8137C23.8734 12.525 23.9305 12.5013 23.9728 12.4591C24.015 12.4169 24.0387 12.3596 24.0387 12.3V11.6117C24.0736 11.6321 24.1081 11.6539 24.1419 11.677C24.3973 11.8523 24.5955 12.0986 24.7122 12.3856C24.729 12.427 24.7578 12.4624 24.795 12.4873C24.8322 12.5121 24.876 12.5252 24.9207 12.525H26.1762C26.2359 12.525 26.293 12.5013 26.3353 12.4591C26.3775 12.4169 26.4012 12.3596 26.4012 12.3V12.2334C26.4015 12.1314 26.3667 12.0323 26.3026 11.9527C26.2387 11.8732 26.1493 11.818 26.0496 11.7964ZM23.8137 12.3H23.3637V11.404C23.5177 11.4149 23.6695 11.4487 23.8137 11.5042V12.3ZM26.1762 12.3H24.9201C24.787 11.9727 24.5607 11.6918 24.2694 11.4919C24.0028 11.3076 23.6911 11.1994 23.3677 11.1789C23.3931 10.8676 23.5116 10.5712 23.7076 10.3281L25.1965 11.817C25.2117 11.8321 25.2307 11.8425 25.2514 11.8472L26.0001 12.0159C26.05 12.0265 26.0947 12.054 26.1268 12.0937C26.1589 12.1334 26.1763 12.183 26.1762 12.234V12.3Z" fill="#3F4050"/>
</g>
<mask id="mask1_45_1582" style="mask-type:luminance" maskUnits="userSpaceOnUse" x="9" y="22" width="5" height="5">
<path d="M13.1996 22.8H9.59961V26.4H13.1996V22.8Z" fill="white"/>
</mask>
<g mask="url(#mask1_45_1582)">
<path d="M12.5992 24.075V25.0875C12.5992 25.1174 12.5874 25.1459 12.5663 25.167C12.5452 25.1882 12.5166 25.2 12.4867 25.2H10.6867C10.6569 25.2 10.6283 25.1882 10.6072 25.167C10.5861 25.1459 10.5742 25.1174 10.5742 25.0875V24.075C10.5742 24.0452 10.5861 24.0165 10.6072 23.9954C10.6283 23.9744 10.6569 23.9625 10.6867 23.9625H12.4867C12.5166 23.9625 12.5452 23.9744 12.5663 23.9954C12.5874 24.0165 12.5992 24.0452 12.5992 24.075Z" fill="#2684FF"/>
<path d="M10.6122 26.1792C10.6122 26.2238 10.599 26.2672 10.5742 26.3043C10.5495 26.3412 10.5144 26.37 10.4733 26.3871C10.4322 26.4042 10.3869 26.4085 10.3433 26.3998C10.2996 26.3913 10.2595 26.3699 10.2281 26.3384C10.1966 26.3069 10.1752 26.2668 10.1665 26.2231C10.1578 26.1795 10.1623 26.1342 10.1793 26.0931C10.1963 26.052 10.2252 26.0169 10.2622 25.9921C10.2992 25.9674 10.3427 25.9542 10.3872 25.9542C10.4469 25.9542 10.5041 25.9779 10.5463 26.0202C10.5885 26.0623 10.6122 26.1195 10.6122 26.1792ZM12.4122 25.9542C12.3677 25.9542 12.3242 25.9674 12.2872 25.9921C12.2502 26.0169 12.2213 26.052 12.2043 26.0931C12.1873 26.1342 12.1828 26.1795 12.1915 26.2231C12.2002 26.2668 12.2216 26.3069 12.2531 26.3384C12.2846 26.3699 12.3246 26.3913 12.3683 26.3998C12.4119 26.4085 12.4572 26.4042 12.4983 26.3871C12.5394 26.37 12.5745 26.3412 12.5992 26.3043C12.624 26.2672 12.6372 26.2238 12.6372 26.1792C12.6372 26.1195 12.6135 26.0623 12.5713 26.0202C12.5291 25.9779 12.4719 25.9542 12.4122 25.9542ZM12.7497 25.5042H10.1622V24.0884C10.1623 24.0587 10.1565 24.0294 10.1452 24.0021C10.1338 23.9748 10.1172 23.95 10.0962 23.9292L9.79177 23.6247C9.78132 23.6142 9.76891 23.6059 9.75525 23.6002C9.7416 23.5945 9.72696 23.5917 9.71217 23.5917C9.68232 23.5917 9.65368 23.6035 9.63258 23.6247C9.62212 23.635 9.61384 23.6475 9.60817 23.6611C9.60252 23.6748 9.59961 23.6895 9.59961 23.7042C9.59961 23.734 9.61147 23.7627 9.63258 23.7838L9.93717 24.0884V25.5042H9.82467C9.79483 25.5042 9.76623 25.516 9.74512 25.5372C9.72403 25.5583 9.71217 25.5869 9.71217 25.6167C9.71217 25.6466 9.72403 25.6752 9.74512 25.6963C9.76623 25.7173 9.79483 25.7292 9.82467 25.7292H12.7497C12.7795 25.7292 12.8081 25.7173 12.8292 25.6963C12.8503 25.6752 12.8622 25.6466 12.8622 25.6167C12.8622 25.5869 12.8503 25.5583 12.8292 25.5372C12.8081 25.516 12.7795 25.5042 12.7497 25.5042ZM10.3872 25.0542V24.0417C10.3872 23.982 10.4109 23.9248 10.4531 23.8827C10.4953 23.8404 10.5525 23.8167 10.6122 23.8167H11.0622V23.5917C11.0622 23.532 11.0859 23.4749 11.1281 23.4327C11.1703 23.3904 11.2275 23.3667 11.2872 23.3667H11.7372C11.7969 23.3667 11.8541 23.3904 11.8963 23.4327C11.9385 23.4749 11.9622 23.532 11.9622 23.5917V23.8167H12.4122C12.4719 23.8167 12.5291 23.8404 12.5713 23.8827C12.6135 23.9248 12.6372 23.982 12.6372 24.0417V25.0542C12.6372 25.1139 12.6135 25.1712 12.5713 25.2134C12.5291 25.2555 12.4719 25.2792 12.4122 25.2792H10.6122C10.5525 25.2792 10.4953 25.2555 10.4531 25.2134C10.4109 25.1712 10.3872 25.1139 10.3872 25.0542ZM11.2872 23.8167H11.7372V23.5917H11.2872V23.8167ZM10.6122 25.0542H12.4122V24.0417H10.6122V25.0542Z" fill="#3F4050"/>
</g>
<path d="M12.6699 11.6559V12.0021H9.87988V11.6559C9.87988 11.3193 10.0136 10.9965 10.2516 10.7584C10.4897 10.5204 11.0626 10.2001 11.3992 10.2001C11.7358 10.2001 12.0601 10.5204 12.2981 10.7584C12.5361 10.9965 12.6699 11.3193 12.6699 11.6559Z" fill="#2684FF"/>
<path d="M12.8304 11.8231V11.5611C12.8297 11.2535 12.7146 10.9548 12.5031 10.712C12.2915 10.4692 11.9956 10.296 11.6618 10.2198C11.7051 10.1587 11.7292 10.0884 11.7317 10.0161C11.7342 9.94388 11.7149 9.87238 11.6758 9.80905C11.6368 9.74573 11.5794 9.69293 11.5097 9.65615C11.44 9.61939 11.3606 9.59998 11.2796 9.59998C11.1987 9.59998 11.1192 9.61939 11.0495 9.65615C10.9798 9.69293 10.9224 9.74573 10.8834 9.80905C10.8443 9.87238 10.825 9.94388 10.8275 10.0161C10.83 10.0884 10.8541 10.1587 10.8974 10.2198C10.5636 10.296 10.2677 10.4692 10.0562 10.712C9.84462 10.9548 9.72948 11.2535 9.72885 11.5611V11.8231C9.68959 11.8433 9.65698 11.8724 9.6343 11.9074C9.61162 11.9425 9.59965 11.9822 9.59961 12.0227V12.4842C9.59961 12.5454 9.62685 12.6041 9.67531 12.6474C9.72378 12.6907 9.78952 12.715 9.85807 12.715H12.7011C12.7697 12.715 12.8354 12.6907 12.8839 12.6474C12.9324 12.6041 12.9596 12.5454 12.9596 12.4842V12.0227C12.9596 11.9822 12.9476 11.9425 12.9249 11.9074C12.9022 11.8724 12.8696 11.8433 12.8304 11.8231ZM11.0858 10.0034C11.0858 9.96922 11.0971 9.93575 11.1184 9.9073C11.1397 9.87883 11.17 9.85664 11.2054 9.84355C11.2408 9.83045 11.2798 9.82702 11.3174 9.83369C11.355 9.84037 11.3896 9.85685 11.4167 9.88106C11.4438 9.90527 11.4622 9.93611 11.4697 9.96968C11.4772 10.0033 11.4734 10.0381 11.4587 10.0697C11.444 10.1013 11.4192 10.1283 11.3873 10.1474C11.3554 10.1664 11.3179 10.1765 11.2796 10.1765C11.2282 10.1765 11.1789 10.1583 11.1425 10.1258C11.1062 10.0934 11.0858 10.0493 11.0858 10.0034ZM11.2796 10.4073C11.6222 10.4076 11.9507 10.5293 12.193 10.7456C12.4353 10.9619 12.5715 11.2552 12.5719 11.5611V11.7919H9.9873V11.5611C9.98769 11.2552 10.124 10.9619 10.3662 10.7456C10.6085 10.5293 10.937 10.4076 11.2796 10.4073ZM11.1504 12.0227V12.4842H10.5042V12.0227H11.1504ZM11.4088 12.0227H12.055V12.4842H11.4088V12.0227ZM9.85807 12.0227H10.2458V12.4842H9.85807V12.0227ZM12.7011 12.4842H12.3135V12.0227H12.7011V12.4842Z" fill="#3F4050"/>
<path d="M19.7974 27.4139L19.4457 28.7033C19.4382 28.731 19.4217 28.7556 19.3989 28.773C19.3759 28.7906 19.348 28.8 19.3192 28.8H18.8833C18.8485 28.8 18.8151 28.7862 18.7905 28.7616C18.7659 28.737 18.7521 28.7036 18.7521 28.6688V28.275H17.4396V28.6688C17.4396 28.7036 17.4258 28.737 17.401 28.7616C17.3764 28.7862 17.3431 28.8 17.3083 28.8H16.8724C16.8436 28.8 16.8156 28.7906 16.7928 28.773C16.77 28.7556 16.7535 28.731 16.7458 28.7033L16.3941 27.4139C16.3893 27.3959 16.3884 27.377 16.3914 27.3587C16.3944 27.3402 16.4013 27.3227 16.4115 27.3071L17.1771 26.1587L18.0958 26.7L19.0146 26.1587L19.78 27.3071C19.7904 27.3227 19.7973 27.3402 19.8003 27.3587C19.8033 27.377 19.8024 27.3959 19.7974 27.4139Z" fill="#2684FF"/>
<path d="M19.8281 27.1025L18.9371 25.7669C18.9133 25.731 18.8809 25.7016 18.8429 25.6812C18.805 25.6608 18.7625 25.65 18.7195 25.65H17.3501C17.3071 25.65 17.2646 25.6608 17.2267 25.6812C17.1887 25.7016 17.1563 25.731 17.1325 25.7669L16.2415 27.1025C16.2206 27.1337 16.2067 27.1689 16.2007 27.206C16.1947 27.243 16.1966 27.281 16.2065 27.3171L16.5583 28.6065C16.5734 28.662 16.6064 28.7111 16.6522 28.746C16.6979 28.781 16.7539 28.8 16.8113 28.8H17.2474C17.317 28.8 17.3837 28.7723 17.4329 28.7231C17.4821 28.6739 17.5099 28.6071 17.5099 28.5375V28.275H18.5599V28.5375C18.5599 28.6071 18.5875 28.6739 18.6367 28.7231C18.6859 28.7723 18.7526 28.8 18.8224 28.8H19.2583C19.3157 28.8 19.3718 28.781 19.4174 28.746C19.4632 28.7111 19.4962 28.662 19.5113 28.6065L19.8631 27.3171C19.873 27.281 19.8749 27.243 19.8689 27.206C19.8629 27.1689 19.849 27.1337 19.8281 27.1025ZM17.2474 28.0125V26.2571L17.6411 26.4891V27.3563C17.6411 27.3911 17.6549 27.4244 17.6795 27.449C17.7041 27.4737 17.7374 27.4875 17.7724 27.4875C17.8072 27.4875 17.8405 27.4737 17.8651 27.449C17.8897 27.4244 17.9036 27.3911 17.9036 27.3563V26.6438L17.9681 26.6817C17.9884 26.6937 18.0113 26.6999 18.0349 26.6999C18.0583 26.6999 18.0812 26.6937 18.1015 26.6817L18.1661 26.6438V27.225C18.1661 27.2598 18.1799 27.2931 18.2045 27.3177C18.2291 27.3425 18.2624 27.3563 18.2974 27.3563C18.3322 27.3563 18.3655 27.3425 18.3901 27.3177C18.4147 27.2931 18.4286 27.2598 18.4286 27.225V26.489L18.8224 26.2571V28.0125H17.2474ZM18.7195 25.9125L18.7673 25.9845L18.0349 26.4164L17.3023 25.9845L17.3501 25.9125H18.7195ZM17.2474 28.5375H16.8113L16.4599 27.2481L16.9849 26.4606V28.0125C16.9849 28.0821 17.0125 28.1489 17.0617 28.1981C17.1109 28.2473 17.1776 28.275 17.2474 28.275V28.5375ZM19.2583 28.5375H18.8224V28.275C18.892 28.275 18.9587 28.2473 19.0079 28.1981C19.0571 28.1489 19.0849 28.0821 19.0849 28.0125V26.4606L19.6099 27.2481L19.2583 28.5375Z" fill="#3F4050"/>
<path d="M10.1983 17.1256V18.6856H7.57715V17.1256C7.57715 17.0619 7.60244 17.0008 7.64745 16.9558C7.69245 16.9108 7.7535 16.8856 7.81715 16.8856H9.95834C10.022 16.8856 10.083 16.9108 10.128 16.9558C10.173 17.0008 10.1983 17.0619 10.1983 17.1256Z" fill="#2684FF"/>
<path d="M10.4392 18.6H10.3192V17.16C10.3192 17.0645 10.2813 16.973 10.2138 16.9053C10.1463 16.8378 10.0547 16.8 9.95922 16.8H7.79922C7.70374 16.8 7.61218 16.8378 7.54467 16.9053C7.47715 16.973 7.43922 17.0645 7.43922 17.16V18.6H7.31922C7.2874 18.6 7.25688 18.6126 7.23438 18.6351C7.21186 18.6576 7.19922 18.6881 7.19922 18.72V18.96C7.19922 19.0554 7.23715 19.1469 7.30467 19.2146C7.37218 19.2821 7.46374 19.32 7.55922 19.32H10.1992C10.2947 19.32 10.3863 19.2821 10.4538 19.2146C10.5213 19.1469 10.5592 19.0554 10.5592 18.96V18.72C10.5592 18.6881 10.5466 18.6576 10.5241 18.6351C10.5016 18.6126 10.471 18.6 10.4392 18.6ZM7.67922 17.16C7.67922 17.1281 7.69186 17.0976 7.71438 17.0751C7.73688 17.0526 7.7674 17.04 7.79922 17.04H9.95922C9.99105 17.04 10.0216 17.0526 10.0441 17.0751C10.0666 17.0976 10.0792 17.1281 10.0792 17.16V18.6H7.67922V17.16ZM10.3192 18.96C10.3192 18.9918 10.3066 19.0223 10.2841 19.0448C10.2616 19.0673 10.231 19.08 10.1992 19.08H7.55922C7.5274 19.08 7.49688 19.0673 7.47438 19.0448C7.45186 19.0223 7.43922 18.9918 7.43922 18.96V18.84H10.3192V18.96ZM9.23922 17.4C9.23922 17.4318 9.22659 17.4623 9.20407 17.4848C9.18157 17.5073 9.15105 17.52 9.11922 17.52H8.63922C8.6074 17.52 8.57688 17.5073 8.55438 17.4848C8.53186 17.4623 8.51922 17.4318 8.51922 17.4C8.51922 17.3681 8.53186 17.3376 8.55438 17.3151C8.57688 17.2926 8.6074 17.28 8.63922 17.28H9.11922C9.15105 17.28 9.18157 17.2926 9.20407 17.3151C9.22659 17.3376 9.23922 17.3681 9.23922 17.4Z" fill="#3F4050"/>
<mask id="mask2_45_1582" style="mask-type:luminance" maskUnits="userSpaceOnUse" x="22" y="22" width="5" height="5">
<path d="M26.4008 22.8H22.8008V26.4H26.4008V22.8Z" fill="white"/>
</mask>
<g mask="url(#mask2_45_1582)">
<path d="M24.601 24.6152V26.0624C24.5821 26.0624 24.5636 26.0575 24.547 26.0483L23.3095 25.3711C23.2919 25.3615 23.2771 25.3472 23.2669 25.33C23.2565 25.3126 23.2511 25.2929 23.251 25.2727V23.9278C23.251 23.9119 23.2544 23.8963 23.2609 23.8817L24.601 24.6152Z" fill="#2684FF"/>
<path d="M25.9467 23.7302L24.7092 23.0531C24.676 23.0348 24.639 23.0254 24.6012 23.0254C24.5634 23.0254 24.5262 23.0348 24.4932 23.0531L23.2557 23.7305C23.2203 23.7499 23.1909 23.7784 23.1702 23.813C23.1496 23.8477 23.1388 23.8871 23.1387 23.9275V25.2724C23.1388 25.3127 23.1496 25.3522 23.1702 25.3868C23.1909 25.4215 23.2203 25.45 23.2557 25.4692L24.4932 26.1466C24.5262 26.1649 24.5634 26.1745 24.6012 26.1745C24.639 26.1745 24.676 26.1649 24.7092 26.1466L25.9467 25.4692C25.9821 25.45 26.0115 25.4215 26.032 25.3868C26.0527 25.3522 26.0635 25.3127 26.0637 25.2724V23.9276C26.0637 23.8873 26.0527 23.8477 26.0322 23.8129C26.0116 23.7782 25.9821 23.7496 25.9467 23.7302ZM24.6012 23.2501L25.731 23.8688L24.6012 24.4876L23.4714 23.8688L24.6012 23.2501ZM23.3637 24.0656L24.4887 24.6814V25.8877L23.3637 25.2725V24.0656ZM24.7137 25.8877V24.6818L25.8387 24.0656V25.2719L24.7137 25.8877Z" fill="#3F4050"/>
</g>
</g>
</g>
<defs>
<clipPath id="clip0_45_1582">
<path d="M0 18C0 8.05888 8.05888 0 18 0C27.9411 0 36 8.05888 36 18C36 27.9411 27.9411 36 18 36C8.05888 36 0 27.9411 0 18Z" fill="white"/>
</clipPath>
<clipPath id="clip1_45_1582">
<rect width="36" height="36" fill="white"/>
</clipPath>
</defs>
</svg>
