<svg preserveAspectRatio="none" width="100%" height="100%" overflow="visible" style="display: block;" viewBox="0 0 36 36" fill="none" xmlns="http://www.w3.org/2000/svg">
<g id="Image [object-contain]" clip-path="url(#clip0_0_27)">
<path id="Vector" d="M18 36C27.9411 36 36 27.9411 36 18C36 8.05887 27.9411 0 18 0C8.05887 0 0 8.05887 0 18C0 27.9411 8.05887 36 18 36Z" fill="var(--fill-0, #B1DAFF)"/>
<path id="Vector_2" d="M14.0488 7.83856H12.9198C12.608 7.83856 12.3552 8.09131 12.3552 8.40309V11.7903C12.3552 12.102 12.608 12.3548 12.9198 12.3548H14.0488C14.3606 12.3548 14.6133 12.102 14.6133 11.7903V8.40309C14.6133 8.09131 14.3606 7.83856 14.0488 7.83856Z" fill="var(--fill-0, #C6DBFF)"/>
<path id="Vector_3" d="M14.2742 8.40303C14.2742 8.2783 14.1729 8.177 14.0482 8.177H12.9191C12.7944 8.177 12.6931 8.2783 12.6931 8.40303V11.7902C12.6931 11.9149 12.7944 12.0162 12.9191 12.0162H14.0482C14.1729 12.0162 14.2742 11.9149 14.2742 11.7902V8.40303ZM14.9512 11.7902C14.9512 12.289 14.547 12.6932 14.0482 12.6932H12.9191C12.4203 12.6932 12.0161 12.289 12.0161 11.7902V8.40303C12.0161 7.90417 12.4203 7.5 12.9191 7.5H14.0482C14.547 7.5 14.9512 7.90417 14.9512 8.40303V11.7902Z" fill="var(--fill-0, #3F4050)"/>
<path id="Vector_4" d="M18.5641 7.83856H17.4351C17.1234 7.83856 16.8706 8.09131 16.8706 8.40309V11.7903C16.8706 12.102 17.1234 12.3548 17.4351 12.3548H18.5641C18.876 12.3548 19.1287 12.102 19.1287 11.7903V8.40309C19.1287 8.09131 18.876 7.83856 18.5641 7.83856Z" fill="var(--fill-0, #C6DBFF)"/>
<path id="Vector_5" d="M18.7904 8.40303C18.7904 8.2783 18.6889 8.177 18.5643 8.177H17.4352C17.3106 8.177 17.2092 8.2783 17.2092 8.40303V11.7902C17.2092 11.9149 17.3106 12.0162 17.4352 12.0162H18.5643C18.6889 12.0162 18.7904 11.9149 18.7904 11.7902V8.40303ZM19.4673 11.7902C19.4673 12.289 19.0632 12.6932 18.5643 12.6932H17.4352C16.9363 12.6932 16.5322 12.289 16.5322 11.7902V8.40303C16.5322 7.90417 16.9363 7.5 17.4352 7.5H18.5643C19.0632 7.5 19.4673 7.90417 19.4673 8.40303V11.7902Z" fill="var(--fill-0, #3F4050)"/>
<path id="Vector_6" d="M23.0811 7.83856H21.952C21.6402 7.83856 21.3874 8.09131 21.3874 8.40309V11.7903C21.3874 12.102 21.6402 12.3548 21.952 12.3548H23.0811C23.3928 12.3548 23.6455 12.102 23.6455 11.7903V8.40309C23.6455 8.09131 23.3928 7.83856 23.0811 7.83856Z" fill="var(--fill-0, #C6DBFF)"/>
<path id="Vector_7" d="M23.3064 8.40303C23.3064 8.2783 23.2051 8.177 23.0803 8.177H21.9513C21.8267 8.177 21.7254 8.2783 21.7254 8.40303V11.7902C21.7254 11.9149 21.8267 12.0162 21.9513 12.0162H23.0803C23.2051 12.0162 23.3064 11.9149 23.3064 11.7902V8.40303ZM23.9835 11.7902C23.9835 12.289 23.5792 12.6932 23.0803 12.6932H21.9513C21.4526 12.6932 21.0483 12.289 21.0483 11.7902V8.40303C21.0483 7.90417 21.4526 7.5 21.9513 7.5H23.0803C23.5792 7.5 23.9835 7.90417 23.9835 8.40303V11.7902Z" fill="var(--fill-0, #3F4050)"/>
<path id="Vector_8" d="M14.0488 23.6451H12.9198C12.608 23.6451 12.3552 23.8978 12.3552 24.2097V27.5968C12.3552 27.9085 12.608 28.1613 12.9198 28.1613H14.0488C14.3606 28.1613 14.6133 27.9085 14.6133 27.5968V24.2097C14.6133 23.8978 14.3606 23.6451 14.0488 23.6451Z" fill="var(--fill-0, #C6DBFF)"/>
<path id="Vector_9" d="M14.2742 24.2099C14.2742 24.0851 14.1729 23.9838 14.0482 23.9838H12.9191C12.7944 23.9838 12.6931 24.0851 12.6931 24.2099V27.597C12.6931 27.7217 12.7944 27.8231 12.9191 27.8231H14.0482C14.1729 27.8231 14.2742 27.7217 14.2742 27.597V24.2099ZM14.9512 27.597C14.9512 28.0958 14.547 28.5 14.0482 28.5H12.9191C12.4203 28.5 12.0161 28.0958 12.0161 27.597V24.2099C12.0161 23.711 12.4203 23.3067 12.9191 23.3067H14.0482C14.547 23.3067 14.9512 23.711 14.9512 24.2099V27.597Z" fill="var(--fill-0, #3F4050)"/>
<path id="Vector_10" d="M18.5641 23.6451H17.4351C17.1234 23.6451 16.8706 23.8978 16.8706 24.2097V27.5968C16.8706 27.9085 17.1234 28.1613 17.4351 28.1613H18.5641C18.876 28.1613 19.1287 27.9085 19.1287 27.5968V24.2097C19.1287 23.8978 18.876 23.6451 18.5641 23.6451Z" fill="var(--fill-0, #C6DBFF)"/>
<path id="Vector_11" d="M18.7904 24.2099C18.7904 24.0851 18.6889 23.9838 18.5643 23.9838H17.4352C17.3106 23.9838 17.2092 24.0851 17.2092 24.2099V27.597C17.2092 27.7217 17.3106 27.8231 17.4352 27.8231H18.5643C18.6889 27.8231 18.7904 27.7217 18.7904 27.597V24.2099ZM19.4673 27.597C19.4673 28.0958 19.0632 28.5 18.5643 28.5H17.4352C16.9363 28.5 16.5322 28.0958 16.5322 27.597V24.2099C16.5322 23.711 16.9363 23.3067 17.4352 23.3067H18.5643C19.0632 23.3067 19.4673 23.711 19.4673 24.2099V27.597Z" fill="var(--fill-0, #3F4050)"/>
<path id="Vector_12" d="M23.0811 23.6451H21.952C21.6402 23.6451 21.3874 23.8978 21.3874 24.2097V27.5968C21.3874 27.9085 21.6402 28.1613 21.952 28.1613H23.0811C23.3928 28.1613 23.6455 27.9085 23.6455 27.5968V24.2097C23.6455 23.8978 23.3928 23.6451 23.0811 23.6451Z" fill="var(--fill-0, #C6DBFF)"/>
<path id="Vector_13" d="M23.3064 24.2099C23.3064 24.0851 23.2051 23.9838 23.0803 23.9838H21.9513C21.8267 23.9838 21.7254 24.0851 21.7254 24.2099V27.597C21.7254 27.7217 21.8267 27.8231 21.9513 27.8231H23.0803C23.2051 27.8231 23.3064 27.7217 23.3064 27.597V24.2099ZM23.9835 27.597C23.9835 28.0958 23.5792 28.5 23.0803 28.5H21.9513C21.4526 28.5 21.0483 28.0958 21.0483 27.597V24.2099C21.0483 23.711 21.4526 23.3067 21.9513 23.3067H23.0803C23.5792 23.3067 23.9835 23.711 23.9835 24.2099V27.597Z" fill="var(--fill-0, #3F4050)"/>
<path id="Vector_14" d="M23.6448 12.9193V14.0484C23.6448 14.3602 23.8975 14.6129 24.2092 14.6129H27.5964C27.9083 14.6129 28.161 14.3602 28.161 14.0484V12.9193C28.161 12.6075 27.9083 12.3548 27.5964 12.3548H24.2092C23.8975 12.3548 23.6448 12.6075 23.6448 12.9193Z" fill="var(--fill-0, #C6DBFF)"/>
<path id="Vector_15" d="M24.2094 12.6932C24.0848 12.6932 23.9834 12.7945 23.9834 12.9192V14.0483C23.9834 14.173 24.0848 14.2743 24.2094 14.2743H27.5965C27.7213 14.2743 27.8226 14.173 27.8226 14.0483V12.9192C27.8226 12.7945 27.7213 12.6932 27.5965 12.6932H24.2094ZM27.5965 12.0162C28.0954 12.0162 28.4996 12.4204 28.4996 12.9192V14.0483C28.4996 14.5471 28.0954 14.9513 27.5965 14.9513H24.2094C23.7105 14.9513 23.3064 14.5471 23.3064 14.0483V12.9192C23.3064 12.4204 23.7105 12.0162 24.2094 12.0162H27.5965Z" fill="var(--fill-0, #3F4050)"/>
<path id="Vector_16" d="M23.6448 17.4354V18.5645C23.6448 18.8763 23.8975 19.1291 24.2092 19.1291H27.5964C27.9083 19.1291 28.161 18.8763 28.161 18.5645V17.4354C28.161 17.1237 27.9083 16.871 27.5964 16.871H24.2092C23.8975 16.871 23.6448 17.1237 23.6448 17.4354Z" fill="var(--fill-0, #C6DBFF)"/>
<path id="Vector_17" d="M24.2094 17.2095C24.0848 17.2095 23.9834 17.3108 23.9834 17.4356V18.5646C23.9834 18.6893 24.0848 18.7907 24.2094 18.7907H27.5965C27.7213 18.7907 27.8226 18.6893 27.8226 18.5646V17.4356C27.8226 17.3108 27.7213 17.2095 27.5965 17.2095H24.2094ZM27.5965 16.5326C28.0954 16.5326 28.4996 16.9367 28.4996 17.4356V18.5646C28.4996 19.0634 28.0954 19.4676 27.5965 19.4676H24.2094C23.7105 19.4676 23.3064 19.0634 23.3064 18.5646V17.4356C23.3064 16.9367 23.7105 16.5326 24.2094 16.5326H27.5965Z" fill="var(--fill-0, #3F4050)"/>
<path id="Vector_18" d="M23.6448 21.9516V23.0807C23.6448 23.3924 23.8975 23.6451 24.2092 23.6451H27.5964C27.9083 23.6451 28.161 23.3924 28.161 23.0807V21.9516C28.161 21.6398 27.9083 21.387 27.5964 21.387H24.2092C23.8975 21.387 23.6448 21.6398 23.6448 21.9516Z" fill="var(--fill-0, #C6DBFF)"/>
<path id="Vector_19" d="M24.2094 21.7255C24.0848 21.7255 23.9834 21.8269 23.9834 21.9516V23.0806C23.9834 23.2054 24.0848 23.3067 24.2094 23.3067H27.5965C27.7213 23.3067 27.8226 23.2054 27.8226 23.0806V21.9516C27.8226 21.8269 27.7213 21.7255 27.5965 21.7255H24.2094ZM27.5965 21.0486C28.0954 21.0486 28.4996 21.4528 28.4996 21.9516V23.0806C28.4996 23.5795 28.0954 23.9836 27.5965 23.9836H24.2094C23.7105 23.9836 23.3064 23.5795 23.3064 23.0806V21.9516C23.3064 21.4528 23.7105 21.0486 24.2094 21.0486H27.5965Z" fill="var(--fill-0, #3F4050)"/>
<path id="Vector_20" d="M7.83839 12.9193V14.0484C7.83839 14.3602 8.09112 14.6129 8.40291 14.6129H11.7901C12.1019 14.6129 12.3546 14.3602 12.3546 14.0484V12.9193C12.3546 12.6075 12.1019 12.3548 11.7901 12.3548H8.40291C8.09112 12.3548 7.83839 12.6075 7.83839 12.9193Z" fill="var(--fill-0, #C6DBFF)"/>
<path id="Vector_21" d="M8.40303 12.6932C8.2783 12.6932 8.177 12.7945 8.177 12.9192V14.0483C8.177 14.173 8.2783 14.2743 8.40303 14.2743H11.7902C11.9149 14.2743 12.0162 14.173 12.0162 14.0483V12.9192C12.0162 12.7945 11.9149 12.6932 11.7902 12.6932H8.40303ZM11.7902 12.0162C12.289 12.0162 12.6932 12.4204 12.6932 12.9192V14.0483C12.6932 14.5471 12.289 14.9513 11.7902 14.9513H8.40303C7.90417 14.9513 7.5 14.5471 7.5 14.0483V12.9192C7.5 12.4204 7.90417 12.0162 8.40303 12.0162H11.7902Z" fill="var(--fill-0, #3F4050)"/>
<path id="Vector_22" d="M7.83839 17.4354V18.5645C7.83839 18.8763 8.09112 19.1291 8.40291 19.1291H11.7901C12.1019 19.1291 12.3546 18.8763 12.3546 18.5645V17.4354C12.3546 17.1237 12.1019 16.871 11.7901 16.871H8.40291C8.09112 16.871 7.83839 17.1237 7.83839 17.4354Z" fill="var(--fill-0, #C6DBFF)"/>
<path id="Vector_23" d="M8.40303 17.2095C8.2783 17.2095 8.177 17.3108 8.177 17.4356V18.5646C8.177 18.6893 8.2783 18.7907 8.40303 18.7907H11.7902C11.9149 18.7907 12.0162 18.6893 12.0162 18.5646V17.4356C12.0162 17.3108 11.9149 17.2095 11.7902 17.2095H8.40303ZM11.7902 16.5326C12.289 16.5326 12.6932 16.9367 12.6932 17.4356V18.5646C12.6932 19.0634 12.289 19.4676 11.7902 19.4676H8.40303C7.90417 19.4676 7.5 19.0634 7.5 18.5646V17.4356C7.5 16.9367 7.90417 16.5326 8.40303 16.5326H11.7902Z" fill="var(--fill-0, #3F4050)"/>
<path id="Vector_24" d="M7.83839 21.9516V23.0807C7.83839 23.3924 8.09112 23.6451 8.40291 23.6451H11.7901C12.1019 23.6451 12.3546 23.3924 12.3546 23.0807V21.9516C12.3546 21.6398 12.1019 21.387 11.7901 21.387H8.40291C8.09112 21.387 7.83839 21.6398 7.83839 21.9516Z" fill="var(--fill-0, #C6DBFF)"/>
<path id="Vector_25" d="M8.40303 21.7255C8.2783 21.7255 8.177 21.8269 8.177 21.9516V23.0806C8.177 23.2054 8.2783 23.3067 8.40303 23.3067H11.7902C11.9149 23.3067 12.0162 23.2054 12.0162 23.0806V21.9516C12.0162 21.8269 11.9149 21.7255 11.7902 21.7255H8.40303ZM11.7902 21.0486C12.289 21.0486 12.6932 21.4528 12.6932 21.9516V23.0806C12.6932 23.5795 12.289 23.9836 11.7902 23.9836H8.40303C7.90417 23.9836 7.5 23.5795 7.5 23.0806V21.9516C7.5 21.4528 7.90417 21.0486 8.40303 21.0486H11.7902Z" fill="var(--fill-0, #3F4050)"/>
<path id="Vector_26" d="M24.7917 10.1248H11.2431C10.6195 10.1248 10.114 10.6303 10.114 11.2539V24.8025C10.114 25.426 10.6195 25.9316 11.2431 25.9316H24.7917C25.4153 25.9316 25.9208 25.426 25.9208 24.8025V11.2539C25.9208 10.6303 25.4153 10.1248 24.7917 10.1248Z" fill="var(--fill-0, #2589F4)"/>
<path id="Vector_27" d="M25.5818 11.254C25.5818 10.8175 25.2276 10.4634 24.7911 10.4634H11.2425C10.806 10.4634 10.4519 10.8175 10.4519 11.254V24.8027C10.4519 25.2392 10.806 25.5931 11.2425 25.5931H24.7911C25.2276 25.5931 25.5818 25.2392 25.5818 24.8027V11.254ZM26.2587 24.8027C26.2587 25.6133 25.6017 26.2702 24.7911 26.2702H11.2425C10.4318 26.2702 9.7749 25.6133 9.7749 24.8027V11.254C9.7749 10.4434 10.4318 9.78644 11.2425 9.78644H24.7911C25.6017 9.78644 26.2587 10.4434 26.2587 11.254V24.8027Z" fill="var(--fill-0, #3F4050)"/>
<path id="Vector_28" d="M20.8618 18.0001C20.8618 21.1179 19.5804 23.6454 17.9997 23.6454C16.4191 23.6454 15.1377 21.1179 15.1377 18.0001C15.1377 14.8823 16.4191 12.3549 17.9997 12.3549C19.5804 12.3549 20.8618 14.8823 20.8618 18.0001Z" fill="var(--fill-0, #C6DBFF)"/>
<path id="Vector_29" d="M19.431 15.5214C22.131 17.0802 23.6791 19.4536 22.8888 20.8225C22.0986 22.1914 19.269 22.0375 16.5689 20.4786C13.8688 18.9196 12.3206 16.5462 13.111 15.1773C13.9013 13.8084 16.7309 13.9624 19.431 15.5214Z" fill="var(--fill-0, #C6DBFF)"/>
<path id="Vector_30" d="M19.4309 20.4786C16.7307 22.0375 13.9012 22.1916 13.1109 20.8225C12.3206 19.4536 13.8687 17.0802 16.5689 15.5214C19.2689 13.9625 22.0985 13.8084 22.8888 15.1773C23.6792 16.5462 22.131 18.9196 19.4309 20.4786Z" fill="var(--fill-0, #C6DBFF)"/>
<path id="Vector_31" d="M19.1287 18C19.1287 18.6236 18.6232 19.1291 17.9997 19.1291C17.3761 19.1291 16.8706 18.6236 16.8706 18C16.8706 17.3765 17.3761 16.871 17.9997 16.871C18.6232 16.871 19.1287 17.3765 19.1287 18Z" fill="var(--fill-0, #C6DBFF)"/>
<path id="Vector_32" d="M20.1843 18.0001C20.1843 16.5249 19.8795 15.2224 19.419 14.3142C18.9396 13.3686 18.4003 13.032 18 13.0318C17.5996 13.0318 17.0595 13.3682 16.5799 14.3142C16.1194 15.2224 15.8147 16.5249 15.8147 18.0001C15.8147 19.4754 16.1194 20.7778 16.5799 21.6861C17.0595 22.632 17.5996 22.9684 18 22.9684V23.6454L17.8522 23.6377C16.3401 23.4862 15.1377 21.0204 15.1377 18.0001C15.1377 14.8823 16.4193 12.3549 18 12.3549L18.1467 12.3626C19.659 12.5135 20.8623 14.9796 20.8623 18.0001L20.847 18.5767C20.7004 21.4236 19.4818 23.6451 18 23.6454V22.9684C18.4003 22.9683 18.9396 22.6317 19.419 21.6861C19.8795 20.7778 20.1843 19.4754 20.1843 18.0001Z" fill="var(--fill-0, #3F4050)"/>
<path id="Vector_33" d="M19.0921 16.1082C17.8146 15.3705 16.5342 14.9832 15.5175 14.9278C14.4588 14.8703 13.8977 15.1689 13.6974 15.5156C13.4972 15.8624 13.5184 16.4982 14.0978 17.3866C14.6542 18.2395 15.6298 19.1547 16.9074 19.8923C18.1849 20.63 19.4654 21.0172 20.4822 21.0726C21.5412 21.1302 22.1025 20.8306 22.3027 20.4839L22.889 20.8224L22.8084 20.9465C21.9213 22.1804 19.1846 21.9887 16.5689 20.4786C13.8688 18.9197 12.3208 16.546 13.1111 15.1771L13.1911 15.054C14.078 13.8196 16.8153 14.0106 19.4311 15.5209L19.9229 15.8226C22.3151 17.3727 23.6297 19.5389 22.889 20.8224L22.3027 20.4839C22.5027 20.1371 22.4808 19.5018 21.9017 18.6138C21.3455 17.7609 20.3697 16.8457 19.0921 16.1082Z" fill="var(--fill-0, #3F4050)"/>
<path id="Vector_34" d="M19.0921 19.8918C20.3697 19.1542 21.3453 18.2391 21.9016 17.3862C22.4808 16.4981 22.5027 15.8628 22.3026 15.5161C22.1025 15.1693 21.541 14.8698 20.4821 14.9274C19.4652 14.9827 18.1849 15.3701 16.9072 16.1076C15.6297 16.8453 14.6541 17.7605 14.0978 18.6134C13.5184 19.5017 13.4971 20.1377 13.6973 20.4843L13.111 20.8228L13.0438 20.691C12.4189 19.3057 13.9532 17.0314 16.5689 15.5214C19.2689 13.9625 22.0986 13.8087 22.8889 15.1776L22.9556 15.3084C23.5811 16.6936 22.047 18.9689 19.4311 20.4791L18.924 20.754C16.3854 22.0506 13.8522 22.1061 13.111 20.8228L13.6973 20.4843C13.8976 20.831 14.4587 21.1296 15.5174 21.0722C16.5342 21.0168 17.8144 20.6295 19.0921 19.8918Z" fill="var(--fill-0, #3F4050)"/>
<path id="Vector_35" d="M19.1287 18C19.1287 18.6236 18.6232 19.1291 17.9997 19.1291C17.3761 19.1291 16.8706 18.6236 16.8706 18C16.8706 17.3765 17.3761 16.871 17.9997 16.871C18.6232 16.871 19.1287 17.3765 19.1287 18Z" fill="var(--fill-0, #2589F4)"/>
<path id="Vector_36" d="M18.4516 18C18.4516 17.7506 18.2491 17.5479 17.9997 17.5479C17.7502 17.5479 17.5476 17.7506 17.5476 18C17.5476 18.2495 17.7502 18.4521 17.9997 18.4521V19.1291C17.3761 19.1291 16.8706 18.6236 16.8706 18C16.8706 17.3765 17.3761 16.871 17.9997 16.871C18.6232 16.871 19.1287 17.3765 19.1287 18C19.1287 18.6236 18.6232 19.1291 17.9997 19.1291V18.4521C18.2491 18.4521 18.4516 18.2495 18.4516 18Z" fill="var(--fill-0, #3F4050)"/>
</g>
<defs>
<clipPath id="clip0_0_27">
<rect width="36" height="36" fill="white"/>
</clipPath>
</defs>
</svg>
