<svg preserveAspectRatio="none" width="100%" height="100%" overflow="visible" style="display: block;" viewBox="0 0 15 15" fill="none" xmlns="http://www.w3.org/2000/svg">
<g id="Icon">
<path id="Vector" d="M5.91375 7.5L10.4685 2.94525C10.5385 2.87831 10.5938 2.79752 10.6308 2.70804C10.6679 2.61855 10.6859 2.52233 10.6837 2.4255C10.6831 2.32851 10.663 2.23263 10.6248 2.1435C10.5865 2.05437 10.5309 1.97379 10.461 1.9065C10.3938 1.83655 10.3131 1.78104 10.2237 1.74338C10.1343 1.70573 10.0382 1.68671 9.94125 1.6875C9.84427 1.68671 9.74815 1.70573 9.65878 1.74338C9.56941 1.78104 9.48867 1.83655 9.4215 1.9065L4.665 6.672C4.55378 6.77897 4.46576 6.90768 4.40641 7.05013C4.34706 7.19257 4.31764 7.3457 4.32 7.5C4.32 7.651 4.3475 7.79675 4.4025 7.93725C4.4575 8.07825 4.54475 8.2085 4.66425 8.328L9.42975 13.0935C9.57525 13.2395 9.747 13.3113 9.945 13.3088C10.0416 13.3081 10.137 13.2881 10.2256 13.2498C10.3143 13.2115 10.3943 13.1558 10.461 13.086C10.531 13.0188 10.5865 12.9381 10.6241 12.8487C10.6618 12.7593 10.6808 12.6632 10.68 12.5662C10.6807 12.4694 10.6616 12.3734 10.624 12.2842C10.5863 12.195 10.5309 12.1143 10.461 12.0472L5.91375 7.5Z" fill="var(--fill-0, black)"/>
</g>
</svg>
