<svg preserveAspectRatio="none" width="100%" height="100%" overflow="visible" style="display: block;" viewBox="0 0 24 24" fill="none" xmlns="http://www.w3.org/2000/svg">
<g id="Icon">
<path id="Vector" d="M2.6 17.675C2.51989 17.5982 2.45665 17.5055 2.4143 17.4029C2.37195 17.3003 2.35141 17.19 2.354 17.079C2.35324 16.9696 2.37465 16.8612 2.41693 16.7603C2.45921 16.6594 2.52148 16.5682 2.6 16.492L8.158 10.925C8.31118 10.77 8.49441 10.6479 8.69646 10.5662C8.89851 10.4845 9.11512 10.445 9.333 10.45C9.79967 10.45 10.1913 10.6083 10.508 10.925L13.45 13.875L19.2 8.142H17.05C16.9398 8.14508 16.8301 8.12536 16.7279 8.08406C16.6257 8.04276 16.5331 7.98077 16.456 7.902C16.377 7.82464 16.3148 7.73174 16.2735 7.62915C16.2322 7.52657 16.2126 7.41654 16.216 7.306C16.216 7.06867 16.296 6.871 16.456 6.713C16.5333 6.63459 16.626 6.57298 16.7282 6.53202C16.8304 6.49107 16.9399 6.47166 17.05 6.475H21.167C21.403 6.475 21.6007 6.555 21.76 6.715C21.92 6.875 22 7.07267 22 7.308V11.425C22.0019 11.5336 21.9822 11.6415 21.942 11.7425C21.9018 11.8434 21.842 11.9354 21.766 12.013C21.6922 12.0923 21.6024 12.1551 21.5026 12.1973C21.4029 12.2395 21.2953 12.2602 21.187 12.258C21.0769 12.26 20.9676 12.2393 20.8659 12.1972C20.7642 12.155 20.6724 12.0923 20.596 12.013C20.5169 11.9371 20.4542 11.8457 20.4119 11.7446C20.3696 11.6434 20.3485 11.5346 20.35 11.425V9.342L14.608 15.067C14.4549 15.2219 14.2719 15.3439 14.07 15.4256C13.8681 15.5073 13.6517 15.5469 13.434 15.542C12.9667 15.542 12.5747 15.3837 12.258 15.067L9.317 12.142L3.783 17.675C3.70639 17.7538 3.61438 17.8159 3.51269 17.8575C3.41101 17.8992 3.30185 17.9194 3.192 17.917C3.08198 17.9195 2.97263 17.8994 2.87076 17.8577C2.7689 17.8161 2.67673 17.7539 2.6 17.675Z" fill="var(--fill-0, black)"/>
</g>
</svg>
