<svg preserveAspectRatio="none" width="100%" height="100%" overflow="visible" style="display: block;" viewBox="0 0 97 21" fill="none" xmlns="http://www.w3.org/2000/svg">
<g id="Icon">
<path id="Vector" d="M18.058 6.784C16.877 4.296 14.554 3.949 13.462 3.614C13.462 3.614 12.621 1.572 8.943 1.352C8.943 1.352 10.16 3.018 8.683 3.565C7.206 4.112 4.943 4.766 3.482 7.642C2.021 10.52 1.938 15.571 6.822 17.361C6.822 17.361 8.042 19.347 10.585 18.619C10.585 18.619 7.077 16.771 8.685 13.669C8.685 13.669 7.112 13.561 6.545 15.971C6.545 15.971 4.605 14.423 5.031 11.889C5.456 9.359 7.655 7.895 10.041 8.413C10.041 8.413 10.395 9.595 9.527 10.737C9.527 10.737 11.619 10.913 12.68 9.01C12.68 9.01 14.632 10.02 15.42 11.19C16.207 12.36 16.606 13.807 17.01 13.787C17.414 13.767 17.745 13.448 17.589 11.474C17.589 11.474 19.242 9.271 18.063 6.784H18.058ZM16.93 9.555C16.8833 9.54679 16.8388 9.52946 16.7988 9.504C16.7589 9.47853 16.7244 9.44544 16.6972 9.4066C16.6701 9.36777 16.6509 9.32397 16.6408 9.27771C16.6306 9.23144 16.6297 9.18363 16.638 9.137C16.6595 9.04254 16.7173 8.96029 16.7988 8.90794C16.8803 8.85558 16.9791 8.83729 17.074 8.857C17.276 8.894 17.404 9.082 17.366 9.275C17.3445 9.36946 17.2867 9.45171 17.2052 9.50406C17.1237 9.55642 17.0249 9.57471 16.93 9.555Z" fill="var(--fill-0, #8C8D96)"/>
<path id="Vector_2" d="M10.627 14.757L12.963 18.715L15.299 14.757L12.963 12.557L10.627 14.757Z" fill="var(--fill-0, #4BCACD)"/>
<path id="Vector_3" d="M24.971 6.212C25.523 6.212 26.015 6.376 26.447 6.704C26.887 7.024 27.227 7.484 27.467 8.084C27.715 8.676 27.839 9.376 27.839 10.184C27.839 11 27.715 11.708 27.467 12.308C27.227 12.9 26.887 13.36 26.447 13.688C26.015 14.008 25.523 14.168 24.971 14.168C24.419 14.168 23.927 14.008 23.495 13.688C23.063 13.36 22.723 12.9 22.475 12.308C22.227 11.708 22.103 11 22.103 10.184C22.103 9.376 22.227 8.676 22.475 8.084C22.723 7.484 23.063 7.024 23.495 6.704C23.918 6.37928 24.4378 6.20601 24.971 6.212ZM24.971 7.664C24.707 7.664 24.471 7.76 24.263 7.952C24.063 8.144 23.907 8.428 23.795 8.804C23.683 9.172 23.627 9.632 23.627 10.184C23.627 10.728 23.683 11.192 23.795 11.576C23.907 11.952 24.063 12.236 24.263 12.428C24.471 12.62 24.707 12.716 24.971 12.716C25.251 12.716 25.491 12.62 25.691 12.428C25.891 12.236 26.047 11.952 26.159 11.576C26.271 11.192 26.327 10.728 26.327 10.184C26.327 9.632 26.271 9.172 26.159 8.804C26.047 8.428 25.891 8.144 25.691 7.952C25.491 7.76 25.251 7.664 24.971 7.664ZM29.663 5.432H31.259V16.58H29.663V5.432ZM27.371 9.452H30.335V10.724H27.371V9.452ZM33.791 10.58H41.602V11.84H33.79L33.791 10.58ZM32.614 13.928H42.682V15.224H32.614V13.928ZM33.79 6.356H41.518V7.652H35.374V11.108H33.79V6.356ZM50.385 5.456H51.993V16.568H50.385V5.456ZM51.645 9.584H53.601V10.904H51.645V9.584ZM43.63 6.32H45.214V9.032H47.446V6.32H49.03V13.988H43.63V6.32ZM45.214 10.268V12.716H47.446V10.268H45.214ZM61.594 5.432H63.189V16.58H61.593L61.594 5.432ZM57.201 6.212C57.7697 6.212 58.2737 6.376 58.713 6.704C59.153 7.024 59.497 7.484 59.745 8.084C60.0017 8.676 60.13 9.376 60.13 10.184C60.13 11 60.002 11.708 59.746 12.308C59.498 12.9 59.154 13.36 58.714 13.688C58.274 14.008 57.7697 14.168 57.201 14.168C56.641 14.168 56.141 14.008 55.701 13.688C55.261 13.36 54.913 12.9 54.657 12.308C54.409 11.708 54.2853 11 54.286 10.184C54.286 9.376 54.41 8.676 54.658 8.084C54.914 7.484 55.262 7.024 55.702 6.704C56.142 6.376 56.641 6.212 57.201 6.212ZM57.202 7.664C56.9336 7.66254 56.6753 7.76587 56.482 7.952C56.2753 8.144 56.1117 8.428 55.991 8.804C55.879 9.172 55.823 9.632 55.823 10.184C55.823 10.728 55.879 11.192 55.991 11.576C56.111 11.952 56.275 12.236 56.483 12.428C56.6897 12.62 56.9297 12.716 57.203 12.716C57.483 12.716 57.7267 12.62 57.934 12.428C58.1427 12.236 58.3027 11.952 58.414 11.576C58.534 11.192 58.594 10.728 58.594 10.184C58.594 9.632 58.534 9.172 58.414 8.804C58.3033 8.428 58.1433 8.144 57.934 7.952C57.7371 7.76387 57.4743 7.66046 57.202 7.664ZM72.382 5.432H73.978V16.58H72.381L72.382 5.432ZM70.435 9.32H72.75V10.604H70.435V9.32ZM67.206 7.196H68.479V8.192C68.479 8.864 68.4147 9.524 68.286 10.172C68.1667 10.7967 67.9733 11.405 67.71 11.984C67.4731 12.5262 67.1533 13.0282 66.762 13.472C66.3828 13.9006 65.927 14.2546 65.418 14.516L64.483 13.256C64.9375 13.0464 65.3486 12.7533 65.695 12.392C66.0383 12.024 66.3223 11.616 66.547 11.168C66.771 10.712 66.935 10.232 67.039 9.728C67.1496 9.22347 67.2056 8.70851 67.206 8.192V7.196ZM67.579 7.196H68.827V8.192C68.827 8.68 68.879 9.168 68.983 9.656C69.095 10.136 69.263 10.596 69.487 11.036C69.7183 11.468 70.0063 11.856 70.351 12.2C70.6943 12.544 71.0983 12.824 71.563 13.04L70.639 14.288C70.1229 14.0476 69.6583 13.7094 69.271 13.292C68.882 12.8685 68.5617 12.3867 68.322 11.864C68.0692 11.303 67.8803 10.7153 67.759 10.112C67.639 9.488 67.579 8.848 67.579 8.192V7.196ZM64.926 6.512H71.106V7.796H64.926V6.512ZM75.33 14.048H85.398V15.344H75.33V14.048ZM79.554 11.936H81.138V14.564H79.554V11.936ZM76.47 6.164H84.258V9.872H78.066V11.732H76.482V8.624H82.674V7.436H76.47V6.164ZM76.482 11.108H84.51V12.38H76.482V11.108ZM86.452 11.012H87.209C87.745 11.012 88.221 11.008 88.637 11C89.061 10.984 89.465 10.96 89.849 10.928C90.241 10.888 90.637 10.836 91.037 10.772L91.181 12.008C90.773 12.088 90.369 12.148 89.969 12.188C89.569 12.22 89.145 12.244 88.697 12.26C88.257 12.268 87.761 12.272 87.209 12.272H86.453L86.452 11.012ZM86.429 6.284H90.353V9.836H87.99V11.576H86.454V8.66H88.806V7.52H86.43L86.429 6.284ZM90.737 8.228H92.825V9.512H90.737V8.228ZM93.953 5.444H95.477V13.796H93.953V5.444ZM91.721 5.648H93.221V13.556H91.721V5.648ZM87.989 15.092H95.753V16.376H87.99L87.989 15.092ZM87.989 13.004H89.597V16.052H87.99L87.989 13.004Z" fill="var(--fill-0, #8C8D96)"/>
</g>
</svg>
